<svg width="30" height="30" viewBox="0 0 30 30" fill="none" xmlns="http://www.w3.org/2000/svg">
<path fill-rule="evenodd" clip-rule="evenodd" d="M5 6.25C4.30965 6.25 3.75 6.80965 3.75 7.5C3.75 8.19035 4.30965 8.75 5 8.75H25C25.6904 8.75 26.25 8.19035 26.25 7.5C26.25 6.80965 25.6904 6.25 25 6.25H5ZM8.75 15C8.75 14.3096 9.30965 13.75 10 13.75H25C25.6904 13.75 26.25 14.3096 26.25 15C26.25 15.6904 25.6904 16.25 25 16.25H10C9.30965 16.25 8.75 15.6904 8.75 15ZM16.25 22.5C16.25 21.8096 16.8096 21.25 17.5 21.25H25C25.6904 21.25 26.25 21.8096 26.25 22.5C26.25 23.1904 25.6904 23.75 25 23.75H17.5C16.8096 23.75 16.25 23.1904 16.25 22.5Z" fill="black"/>
</svg>
