<svg width="30" height="30" viewBox="0 0 30 30" fill="none" xmlns="http://www.w3.org/2000/svg">
<path d="M4.6875 7.49992H2.8125C2.56386 7.49992 2.3254 7.40115 2.14959 7.22533C1.97377 7.04952 1.875 6.81106 1.875 6.56242C1.875 6.31378 1.97377 6.07532 2.14959 5.89951C2.3254 5.72369 2.56386 5.62492 2.8125 5.62492H10.3125V2.81055C10.3125 2.56191 10.4113 2.32345 10.5871 2.14763C10.7629 1.97182 11.0014 1.87305 11.25 1.87305H18.75C18.9986 1.87305 19.2371 1.97182 19.4129 2.14763C19.5887 2.32345 19.6875 2.56191 19.6875 2.81055V5.62492H27.1875C27.4361 5.62492 27.6746 5.72369 27.8504 5.89951C28.0262 6.07532 28.125 6.31378 28.125 6.56242C28.125 6.81106 28.0262 7.04952 27.8504 7.22533C27.6746 7.40115 27.4361 7.49992 27.1875 7.49992H25.3125V27.1874C25.3125 27.4361 25.2137 27.6745 25.0379 27.8503C24.8621 28.0262 24.6236 28.1249 24.375 28.1249H5.625C5.37636 28.1249 5.1379 28.0262 4.96209 27.8503C4.78627 27.6745 4.6875 27.4361 4.6875 27.1874V7.49992ZM17.8125 5.62492V3.74992H12.1875V5.62492H17.8125ZM6.5625 26.2499H23.4375V7.49992H6.5625V26.2499ZM12.1875 22.4999C11.9389 22.4999 11.7004 22.4012 11.5246 22.2253C11.3488 22.0495 11.25 21.8111 11.25 21.5624V12.1874C11.25 11.9388 11.3488 11.7003 11.5246 11.5245C11.7004 11.3487 11.9389 11.2499 12.1875 11.2499C12.4361 11.2499 12.6746 11.3487 12.8504 11.5245C13.0262 11.7003 13.125 11.9388 13.125 12.1874V21.5624C13.125 21.8111 13.0262 22.0495 12.8504 22.2253C12.6746 22.4012 12.4361 22.4999 12.1875 22.4999ZM17.8125 22.4999C17.5639 22.4999 17.3254 22.4012 17.1496 22.2253C16.9738 22.0495 16.875 21.8111 16.875 21.5624V12.1874C16.875 11.9388 16.9738 11.7003 17.1496 11.5245C17.3254 11.3487 17.5639 11.2499 17.8125 11.2499C18.0611 11.2499 18.2996 11.3487 18.4754 11.5245C18.6512 11.7003 18.75 11.9388 18.75 12.1874V21.5624C18.75 21.8111 18.6512 22.0495 18.4754 22.2253C18.2996 22.4012 18.0611 22.4999 17.8125 22.4999Z" fill="#B90000"/>
</svg>
