<svg width="30" height="30" viewBox="0 0 30 30" fill="none" xmlns="http://www.w3.org/2000/svg">
<path d="M24.375 15C24.375 14.7514 24.4738 14.5129 24.6496 14.3371C24.8254 14.1613 25.0639 14.0625 25.3125 14.0625C25.5611 14.0625 25.7996 14.1613 25.9754 14.3371C26.1512 14.5129 26.25 14.7514 26.25 15V25.3125C26.25 25.5611 26.1512 25.7996 25.9754 25.9754C25.7996 26.1512 25.5611 26.25 25.3125 26.25H4.6875C4.43886 26.25 4.2004 26.1512 4.02459 25.9754C3.84877 25.7996 3.75 25.5611 3.75 25.3125V4.6875C3.75 4.43886 3.84877 4.2004 4.02459 4.02459C4.2004 3.84877 4.43886 3.75 4.6875 3.75H15C15.2486 3.75 15.4871 3.84877 15.6629 4.02459C15.8387 4.2004 15.9375 4.43886 15.9375 4.6875C15.9375 4.93614 15.8387 5.1746 15.6629 5.35041C15.4871 5.52623 15.2486 5.625 15 5.625H5.625V24.375H24.375V15Z" fill="black"/>
<path d="M13.7686 16.2376L15.3155 16.0164L24.818 6.51573C24.9075 6.42925 24.9789 6.3258 25.0281 6.21142C25.0772 6.09704 25.1031 5.97402 25.1041 5.84954C25.1052 5.72506 25.0815 5.60161 25.0344 5.4864C24.9872 5.37118 24.9176 5.26651 24.8296 5.17848C24.7416 5.09046 24.6369 5.02085 24.5217 4.97371C24.4065 4.92657 24.283 4.90285 24.1585 4.90393C24.034 4.90501 23.911 4.93087 23.7966 4.98001C23.6823 5.02914 23.5788 5.10056 23.4923 5.1901L13.988 14.6907L13.7667 16.2376H13.7686ZM26.1436 3.8626C26.4049 4.12379 26.6123 4.43392 26.7537 4.77526C26.8952 5.11661 26.968 5.48248 26.968 5.85198C26.968 6.22147 26.8952 6.58735 26.7537 6.92869C26.6123 7.27004 26.4049 7.58016 26.1436 7.84135L16.4217 17.5632C16.2783 17.7071 16.0921 17.8006 15.8911 17.8295L12.7973 18.272C12.6532 18.2927 12.5061 18.2795 12.3679 18.2335C12.2297 18.1875 12.1041 18.1099 12.0012 18.0069C11.8982 17.9039 11.8206 17.7783 11.7746 17.6401C11.7286 17.5019 11.7154 17.3549 11.7361 17.2107L12.1786 14.117C12.207 13.9162 12.2998 13.73 12.443 13.5864L22.1667 3.86448C22.6941 3.33722 23.4094 3.04102 24.1551 3.04102C24.9009 3.04102 25.6162 3.33722 26.1436 3.86448V3.8626Z" fill="black"/>
</svg>
