<svg width="40" height="40" viewBox="0 0 40 40" fill="none" xmlns="http://www.w3.org/2000/svg">
<path d="M39.8967 8.77152C39.7164 7.86324 39.3137 7.03207 38.7512 6.34543C38.6327 6.19582 38.5087 6.06184 38.3745 5.92785C37.378 4.92645 35.9794 4.30176 34.4515 4.30176H5.54852C4.02063 4.30176 2.62703 4.92645 1.62586 5.92785C1.49188 6.06184 1.36797 6.19582 1.24906 6.34543C0.686328 7.03199 0.283594 7.86324 0.108281 8.77152C0.03625 9.12207 0 9.48433 0 9.85058V30.15C0 30.9288 0.165156 31.6774 0.459687 32.3534C0.732891 32.9987 1.1357 33.5826 1.62578 34.0722C1.75 34.1961 1.87336 34.31 2.00797 34.4233C2.96781 35.2182 4.2068 35.6983 5.54852 35.6983H34.4515C35.7937 35.6983 37.038 35.2182 37.9923 34.4183C38.1266 34.31 38.2505 34.1961 38.3745 34.0722C38.8643 33.5826 39.267 32.9987 39.5459 32.3534V32.3484C39.8403 31.6724 39.9999 30.9288 39.9999 30.1501V9.85058C40 9.48433 39.9643 9.12207 39.8967 8.77152ZM3.63352 7.93527C4.12922 7.44012 4.79492 7.14035 5.54852 7.14035H34.4515C35.2051 7.14035 35.8766 7.44012 36.3665 7.93527C36.4541 8.02348 36.5367 8.12176 36.6096 8.21941L21.4606 21.4221C21.0428 21.7883 20.5267 21.9692 20 21.9692C19.4786 21.9692 18.9628 21.7883 18.5395 21.4221L3.39625 8.21379C3.46328 8.11613 3.54586 8.02348 3.63352 7.93527ZM2.83859 30.15V11.1512L13.8014 20.7149L2.84414 30.2684C2.83859 30.2321 2.83859 30.1914 2.83859 30.15ZM34.4515 32.8592H5.54852C5.05781 32.8592 4.59867 32.7302 4.2068 32.5036L15.7676 22.4286L16.8469 23.3675C17.7501 24.1524 18.8803 24.5499 20 24.5499C21.1255 24.5499 22.2556 24.1524 23.1588 23.3675L24.2375 22.4286L35.7938 32.5036C35.4013 32.7302 34.9422 32.8592 34.4515 32.8592ZM37.1614 30.15C37.1614 30.1914 37.1614 30.2321 37.1561 30.2684L26.1989 20.7204L37.1614 11.1563V30.15Z" fill="#9e9e9e"/>
</svg>
