<svg xmlns="http://www.w3.org/2000/svg" fill="none" viewBox="0 0 25 25" id="filter">
  <path fill="#1A457B" d="M20.814 5.342V.735c0-.406.336-.735.75-.735s.75.33.75.735v4.607c0 .407-.336.736-.75.736s-.75-.33-.75-.736z"></path>
  <path fill="#1A457B" d="M18.128 7.975c0-1.857 1.542-3.368 3.436-3.368C23.459 4.607 25 6.118 25 7.975s-1.541 3.368-3.436 3.368c-1.894 0-3.436-1.51-3.436-3.368zm5.372 0c0-1.046-.869-1.897-1.936-1.897s-1.935.85-1.935 1.897c0 1.046.868 1.898 1.935 1.898 1.067 0 1.936-.852 1.936-1.898zm-2.686 16.29v-10.99c0-.406.336-.735.75-.735s.75.329.75.735v10.99c0 .406-.336.735-.75.735s-.75-.33-.75-.735zm-11.75-6.417c0-1.858 1.542-3.368 3.436-3.368s3.435 1.51 3.435 3.367c0 1.858-1.54 3.368-3.435 3.368-1.894 0-3.436-1.51-3.436-3.367zm5.371 0c0-1.047-.868-1.898-1.935-1.898-1.067 0-1.935.851-1.935 1.898 0 1.046.868 1.897 1.935 1.897 1.067 0 1.935-.851 1.935-1.898zm-2.685-5.3V.735c0-.406.336-.735.75-.735s.75.33.75.735v11.813c0 .406-.336.735-.75.735s-.75-.33-.75-.735z"></path>
  <path fill="#1A457B" d="M11.75 24.265V20.48c0-.406.336-.735.75-.735s.75.329.75.735v3.785c0 .406-.336.735-.75.735s-.75-.33-.75-.735zM0 7.152c0-1.857 1.541-3.368 3.436-3.368 1.894 0 3.436 1.511 3.436 3.368 0 1.858-1.542 3.368-3.436 3.368C1.541 10.52 0 9.01 0 7.152zm5.371 0c0-1.046-.868-1.897-1.935-1.897-1.067 0-1.936.851-1.936 1.897 0 1.048.87 1.898 1.936 1.898s1.935-.851 1.935-1.898zM2.686 24.265V12.452c0-.406.336-.735.75-.735s.75.33.75.735v11.813c0 .406-.336.735-.75.735s-.75-.33-.75-.735z"></path>
  <path fill="#1A457B" d="M2.686 4.52V.735c0-.406.336-.735.75-.735s.75.33.75.735V4.52c0 .406-.336.735-.75.735s-.75-.33-.75-.735z"></path>
</svg>
