<svg width="50" height="50" viewBox="0 0 50 50" fill="none" xmlns="http://www.w3.org/2000/svg">
<path d="M46.8768 25.4859C46.8768 23.6873 46.7279 22.3748 46.4056 21.0137H25.4482V29.1316H37.7498C37.5018 31.1491 36.1625 34.1873 33.1862 36.2288L33.1445 36.5007L39.7709 41.5313L40.23 41.5762C44.4462 37.7602 46.8768 32.1455 46.8768 25.4859Z" fill="#4285F4"/>
<path d="M25.4473 46.8749C31.474 46.8749 36.5334 44.9304 40.229 41.5762L33.1853 36.2288C31.3004 37.5171 28.7706 38.4163 25.4473 38.4163C19.5446 38.4163 14.5347 34.6004 12.7488 29.3262L12.4871 29.3479L5.59695 34.5737L5.50684 34.8191C9.17743 41.9649 16.7171 46.8749 25.4473 46.8749Z" fill="#34A853"/>
<path d="M12.7499 29.3266C12.2786 27.9655 12.0059 26.5071 12.0059 25.0002C12.0059 23.4932 12.2786 22.0349 12.7251 20.6738L12.7126 20.3838L5.73609 15.0742L5.50784 15.1806C3.99502 18.146 3.12695 21.4758 3.12695 25.0002C3.12695 28.5244 3.99502 31.8543 5.50784 34.8196L12.7499 29.3266Z" fill="#FBBC05"/>
<path d="M25.4474 11.5833C29.6389 11.5833 32.4662 13.3576 34.0784 14.8403L40.3779 8.8125C36.509 5.2882 31.4742 3.125 25.4474 3.125C16.7171 3.125 9.17745 8.03469 5.50684 15.1805L12.7241 20.6736C14.5348 15.3993 19.5446 11.5833 25.4474 11.5833Z" fill="#EB4335"/>
</svg>
