<svg id="fold-down" viewBox="0 0 24 25" fill="none" xmlns="http://www.w3.org/2000/svg">
  <path d="M12 18.5L11.3492 19.2593L12 19.8171L12.6508 19.2593L12 18.5ZM4.34921 13.2593L11.3492 19.2593L12.6508 17.7407L5.65079 11.7407L4.34921 13.2593ZM12.6508 19.2593L19.6508 13.2593L18.3492 11.7407L11.3492 17.7407L12.6508 19.2593Z" fill="#CCD2E3" />
  <path d="M12 12.5L11.3492 13.2593L12 13.8171L12.6508 13.2593L12 12.5ZM4.34921 7.25926L11.3492 13.2593L12.6508 11.7407L5.65079 5.74074L4.34921 7.25926ZM12.6508 13.2593L19.6508 7.25926L18.3492 5.74074L11.3492 11.7407L12.6508 13.2593Z" fill="#CCD2E3" />
</svg>
