<svg width="83" height="111" viewBox="0 0 83 111" fill="none" xmlns="http://www.w3.org/2000/svg">
<path d="M66.1708 55.9683C70 53.5 62.4185 42.3182 56.9964 37.4879C51.5743 32.6577 44.4172 29.9673 36.9795 29.9634H28.1996C27.64 29.956 27.0923 29.809 26.6115 29.5372C26.1307 29.2654 25.7338 28.8783 25.4606 28.4149C24.2036 26.4391 22.3839 24.677 22.7216 22.7725C23.2281 19.8534 26.605 18.2514 26.605 15.3502C26.5889 13.1933 25.7794 11.1094 24.3162 9.45858C24.6915 8.02317 24.7553 6.53036 24.5038 5.07083C24.2522 3.6113 23.6906 2.21549 22.8529 0.968262C21.2419 1.02653 19.6621 1.40712 18.2169 2.08501C16.7718 2.76291 15.4939 3.72285 14.467 4.90195H13.3601H12.272C11.2534 3.73157 9.98755 2.77679 8.55605 2.09924C7.12454 1.42169 5.55921 1.03639 3.96108 0.968262C3.12343 2.21549 2.56176 3.6113 2.31021 5.07083C2.05865 6.53036 2.12247 8.02317 2.49776 9.45858C1.03458 11.1094 0.225045 13.1933 0.208984 15.3502C0.208984 18.376 3.84854 19.9602 4.44887 23.0217C6.49376 33.5589 -3 55.9683 2.31 55.9683H66.1708Z" fill="#000"/>
<path d="M63.4674 55.6957C74.9674 54.2082 72.3942 84.4267 72.0134 91.2292C71.5058 100.566 71.5274 110.24 80.8555 110.964C83.7111 111.171 83.6899 105.791 80.8555 105.533C73.1561 104.938 76.7729 87.427 77.0902 81.2969C77.4921 73.9771 78.2535 65.2865 75.5037 58.4322C74.536 55.7028 72.7448 53.5346 70.5032 52.3785C68.2616 51.2223 66.2555 50.4843 63.2833 51.4366C59.9677 52.4987 60.4672 56.0838 63.4674 55.6957Z" fill="#000"/>
<path d="M4.65549 13.9963C5.06925 14.4736 5.58706 14.8577 6.17222 15.1213C6.75739 15.3848 7.39566 15.5214 8.0418 15.5214C8.68795 15.5214 9.32616 15.3848 9.91132 15.1213C10.4965 14.8577 11.0143 14.4736 11.4281 13.9963C12.0472 13.3467 11.0528 12.3904 10.4338 13.04C10.1516 13.3919 9.78921 13.6769 9.37453 13.8731C8.95984 14.0692 8.50391 14.1712 8.0418 14.1712C7.5797 14.1712 7.12371 14.0692 6.70902 13.8731C6.29434 13.6769 5.93196 13.3919 5.6498 13.04C5.0307 12.3904 4.0364 13.3648 4.65549 13.9963Z" fill="white"/>
<path d="M15.593 13.9963C16.0067 14.4736 16.5245 14.8577 17.1097 15.1213C17.6948 15.3848 18.3331 15.5214 18.9792 15.5214C19.6254 15.5214 20.2637 15.3848 20.8488 15.1213C21.434 14.8577 21.9517 14.4736 22.3655 13.9963C22.9846 13.3467 21.9903 12.3904 21.3712 13.04C21.089 13.3919 20.7267 13.6769 20.312 13.8731C19.8973 14.0692 19.4413 14.1712 18.9792 14.1712C18.5171 14.1712 18.0612 14.0692 17.6465 13.8731C17.2318 13.6769 16.8695 13.3919 16.5873 13.04C15.9682 12.3904 14.9739 13.3648 15.593 13.9963Z" fill="white"/>
</svg>
