<svg width="40" height="40" viewBox="0 0 40 40" fill="none" xmlns="http://www.w3.org/2000/svg">
<g clip-path="url(#clip0_867_669)">
<path fill-rule="evenodd" clip-rule="evenodd" d="M37.53 0V40H4.56313V30.8497H3.38575C2.73584 30.8497 2.20836 30.3226 2.20836 29.6732C2.20836 29.0238 2.73584 28.4968 3.38575 28.4968H4.56313V21.4379H3.38575C2.73584 21.4379 2.20836 20.9108 2.20836 20.2614C2.20836 19.612 2.73584 19.085 3.38575 19.085H4.56313V12.0261H3.38575C2.73584 12.0261 2.20836 11.4991 2.20836 10.8497C2.20836 10.2003 2.73584 9.67319 3.38575 9.67319H4.56313V0H37.53ZM35.1752 2.35294H6.91792V9.67321H8.09532C8.74523 9.67321 9.27269 10.2003 9.27269 10.8497C9.27269 11.4991 8.74523 12.0261 8.09532 12.0261H6.91792V19.085H8.09532C8.74523 19.085 9.27269 19.612 9.27269 20.2614C9.27269 20.9109 8.74523 21.4379 8.09532 21.4379H6.91792V28.4967H8.09532C8.74523 28.4967 9.27269 29.0238 9.27269 29.6732C9.27269 30.3226 8.74523 30.8497 8.09532 30.8497H6.91792V37.6471H35.1753V2.35292L35.1752 2.35294ZM13.3394 8.85835H28.9354V11.2113H13.3393L13.3394 8.85835ZM13.3394 13.334H26.661V15.6869H13.3393L13.3394 13.334ZM13.3394 24.4766H28.9354V26.8295H13.3393L13.3394 24.4766ZM13.3394 28.9522H26.661V31.3051H13.3393L13.3394 28.9522Z" fill="black"/>
</g>
<defs>
<clipPath id="clip0_867_669">
<rect width="40" height="40" fill="white"/>
</clipPath>
</defs>
</svg>
