<svg id="refresh" viewBox="0 0 30 31" fill="none" xmlns="http://www.w3.org/2000/svg">
  <path d="M1.25 5.50098V13.001H8.75" stroke="#1A457B" stroke-width="2" stroke-linecap="round" stroke-linejoin="round" />
  <path d="M28.748 25.5V18H21.248" stroke="#1A457B" stroke-width="2" stroke-linecap="round" stroke-linejoin="round" />
  <path d="M25.6125 11.75C24.9785 9.95845 23.9011 8.35673 22.4807 7.09424C21.0602 5.83176 19.3432 4.94968 17.4896 4.5303C15.6361 4.11091 13.7066 4.1679 11.881 4.69594C10.0555 5.22398 8.39343 6.20586 7.05 7.54997L1.25 13M28.75 18L22.95 23.45C21.6066 24.7941 19.9445 25.776 18.119 26.304C16.2934 26.832 14.3639 26.889 12.5104 26.4696C10.6568 26.0503 8.93975 25.1682 7.51933 23.9057C6.09892 22.6432 5.02146 21.0415 4.3875 19.25" stroke="#1A457B" stroke-width="2" stroke-linecap="round" stroke-linejoin="round" />
</svg>
