<svg id="reload" viewBox="0 0 27 29" fill="none" xmlns="http://www.w3.org/2000/svg">
  <rect width="27" height="29"/>
  <path d="M21.1743 5.26276C20.6335 4.87329 19.8825 4.99516 19.4942 5.53477C19.1041 6.07375 19.2263 6.82662 19.7659 7.21515C24.0417 10.2989 25.4262 15.9648 23.0582 20.6865C21.7761 23.2426 19.5756 25.1472 16.8625 26.0468C14.15 26.9485 11.2475 26.7378 8.69204 25.4566C6.13722 24.1742 4.23289 21.974 3.33176 19.2621C2.43158 16.5477 2.64171 13.6471 3.92414 11.0913C5.4814 7.98499 8.46526 5.82122 11.9061 5.30297C11.9294 5.30045 11.9492 5.29166 11.9724 5.28632L12.0217 7.6643C12.0283 7.92782 12.192 8.16214 12.4366 8.25762C12.6822 8.35342 12.9618 8.29217 13.1433 8.10183L16.5682 4.52779C16.8176 4.26772 16.8081 3.85501 16.5487 3.60656L12.9747 0.182031C12.7843 -0.000769514 12.5038 -0.0500818 12.2626 0.0567091C12.1838 0.0906309 12.1131 0.141199 12.0547 0.201819C11.9379 0.324 11.871 0.490468 11.8728 0.666359L11.9203 2.93158C11.7993 2.91179 11.6753 2.90426 11.5471 2.9231C7.33265 3.55788 3.67852 6.20849 1.77105 10.0124C-1.47068 16.4752 1.15166 24.3692 7.61376 27.6097C9.49485 28.5535 11.4966 29.0008 13.4703 29.0008C18.2778 29.0008 22.9134 26.3502 25.2116 21.7679C28.1126 15.983 26.4152 9.04096 21.1743 5.26276Z" fill="#1A457B" />
</svg>
