<svg xmlns="http://www.w3.org/2000/svg" viewBox="0 0 20 21" fill="none" id="search">
  <path fill="#7E90AA" d="M8.23979 16.9718C3.6985 16.9718 0.00390625 13.2772 0.00390625 8.73588C0.00390625 4.19459 3.6985 0.5 8.23979 0.5C12.7811 0.5 16.4757 4.19459 16.4757 8.73588C16.4757 13.2772 12.7811 16.9718 8.23979 16.9718ZM8.23979 2.0613C4.5594 2.0613 1.56521 5.0555 1.56521 8.73588C1.56521 12.4163 4.5594 15.4105 8.23979 15.4105C11.9202 15.4105 14.9144 12.4163 14.9144 8.73588C14.9144 5.0555 11.9202 2.0613 8.23979 2.0613ZM19.76 20.2713C20.0648 19.9665 20.0648 19.4722 19.76 19.1673L16.2666 15.6739C15.9617 15.369 15.4674 15.369 15.1625 15.6739C14.8577 15.9788 14.8577 16.4731 15.1625 16.7779L18.656 20.2713C18.8084 20.4238 19.0082 20.5 19.208 20.5C19.4078 20.5 19.6075 20.4238 19.76 20.2713Z" />
</svg>
