<svg width="30" height="30" viewBox="0 0 30 30" fill="none" xmlns="http://www.w3.org/2000/svg">
<path d="M25.2394 19.7006C25.14 18.4622 24.6619 17.6165 24.2185 17.0812C24.3694 16.41 24.4566 15.7143 24.4566 14.9972C24.4566 9.77528 20.2238 5.54246 15.0019 5.54246C14.2847 5.54246 13.5891 5.62965 12.9178 5.78059C12.4463 5.36903 11.1291 4.45309 8.93251 4.76246C6.13314 5.15621 4.49251 7.8909 4.68751 10.3125C4.79158 11.6053 5.30533 12.464 5.76376 12.9947C5.62099 13.6526 5.5484 14.3239 5.5472 14.9972C5.5472 20.219 9.78001 24.4528 15.0019 24.4528C15.6919 24.4528 16.3631 24.374 17.011 24.2343C17.4853 24.6468 18.8016 25.559 20.9944 25.2506C23.7928 24.8568 25.4344 22.1231 25.2394 19.7006ZM19.6725 19.4681C19.0256 20.1937 18.1688 20.9193 16.1128 21.1818C12.6703 21.6215 10.6931 19.9518 10.1653 19.439C9.63751 18.9262 9.55033 17.6475 10.1363 17.1834C10.9125 16.5684 11.5538 16.6725 12.7435 17.8865C14.2078 19.3809 16.5806 18.9768 16.9772 18.15C17.3138 17.4468 16.9041 16.905 16.1419 16.6856C15.3366 16.4531 12.345 15.704 11.821 15.4987C9.12751 14.4459 9.74064 11.8809 9.85783 11.4703C9.97501 11.0597 10.2853 9.28684 13.6519 8.75996C17.0194 8.23309 19.1006 9.87371 19.1006 9.87371C20.3306 10.8553 19.8478 12.1293 19.1738 12.4809C18.4997 12.8325 17.9288 12.7153 17.0063 11.8659C16.0838 11.0165 14.8388 11.1187 14.5453 11.1478C14.2519 11.1768 13.3444 11.25 13.125 11.8678C12.9056 12.4856 13.2863 12.8456 13.9894 13.125C15.3666 13.6715 17.1413 13.4212 19.1306 14.7656C21.255 16.2009 20.2735 18.794 19.6725 19.4681Z" fill="white"/>
</svg>
